<?xml version="1.0" encoding="UTF-8" standalone="no"?>
<!DOCTYPE svg PUBLIC "-//W3C//DTD SVG 1.1//EN" "http://www.w3.org/Graphics/SVG/1.1/DTD/svg11.dtd">
<svg width="100%" height="100%" viewBox="0 0 108 108" version="1.1" xmlns="http://www.w3.org/2000/svg" xmlns:xlink="http://www.w3.org/1999/xlink" xml:space="preserve" xmlns:serif="http://www.serif.com/" style="fill-rule:evenodd;clip-rule:evenodd;stroke-linejoin:round;stroke-miterlimit:1.41421;">
    <g transform="matrix(1.49907,0,0,1.20804,-602.961,-40.588)">
        <path d="M441.295,43.929C441.295,41.771 439.883,40.019 438.144,40.019C436.406,40.019 434.994,41.771 434.994,43.929L434.994,113.599C434.994,115.756 436.406,117.508 438.144,117.508C439.883,117.508 441.295,115.756 441.295,113.599L441.295,43.929Z" style="fill:rgb(7,144,1);"/>
    </g>
    <g transform="matrix(0.964283,1.14777,-0.28422,0.238783,-353.645,-503.003)">
        <path d="M441.295,52.742C441.295,45.72 439.883,40.019 438.144,40.019C436.406,40.019 434.994,45.72 434.994,52.742L434.994,104.786C434.994,111.807 436.406,117.508 438.144,117.508C439.883,117.508 441.295,111.807 441.295,104.786L441.295,52.742Z" style="fill:rgb(7,144,1);"/>
    </g>
    <g transform="matrix(-0.964283,1.14777,0.28422,0.238783,461.377,-502.985)">
        <path d="M441.295,52.742C441.295,45.72 439.883,40.019 438.144,40.019C436.406,40.019 434.994,45.72 434.994,52.742L434.994,104.786C434.994,111.807 436.406,117.508 438.144,117.508C439.883,117.508 441.295,111.807 441.295,104.786L441.295,52.742Z" style="fill:rgb(7,144,1);"/>
    </g>
    <g transform="matrix(0.964283,1.14777,-0.32019,0.269002,-352.206,-485.213)">
        <path d="M441.295,51.312C441.295,45.08 439.883,40.019 438.144,40.019C436.406,40.019 434.994,45.08 434.994,51.312L434.994,106.215C434.994,112.448 436.406,117.508 438.144,117.508C439.883,117.508 441.295,112.448 441.295,106.215L441.295,51.312Z" style="fill:rgb(7,144,1);"/>
    </g>
    <g transform="matrix(-0.964283,1.14777,0.319915,0.268771,459.948,-485.185)">
        <path d="M441.295,51.322C441.295,45.084 439.883,40.019 438.144,40.019C436.406,40.019 434.994,45.084 434.994,51.322L434.994,106.205C434.994,112.443 436.406,117.508 438.144,117.508C439.883,117.508 441.295,112.443 441.295,106.205L441.295,51.322Z" style="fill:rgb(7,144,1);"/>
    </g>
    <g transform="matrix(0.964283,1.14777,-0.355889,0.298995,-350.777,-466.413)">
        <path d="M441.295,50.18C441.295,44.572 439.883,40.019 438.144,40.019C436.406,40.019 434.994,44.572 434.994,50.18L434.994,107.348C434.994,112.955 436.406,117.508 438.144,117.508C439.883,117.508 441.295,112.955 441.295,107.348L441.295,50.18Z" style="fill:rgb(7,144,1);"/>
    </g>
    <g transform="matrix(-0.964283,1.14777,0.35556,0.298718,458.522,-466.383)">
        <path d="M441.295,50.189C441.295,44.576 439.883,40.019 438.144,40.019C436.406,40.019 434.994,44.576 434.994,50.189L434.994,107.338C434.994,112.951 436.406,117.508 438.144,117.508C439.883,117.508 441.295,112.951 441.295,107.338L441.295,50.189Z" style="fill:rgb(7,144,1);"/>
    </g>
</svg>
