<?xml version="1.0" encoding="UTF-8" standalone="no"?>
<!DOCTYPE svg PUBLIC "-//W3C//DTD SVG 1.1//EN" "http://www.w3.org/Graphics/SVG/1.1/DTD/svg11.dtd">
<svg width="100%" height="100%" viewBox="0 0 2400 1200" version="1.1" xmlns="http://www.w3.org/2000/svg" xmlns:xlink="http://www.w3.org/1999/xlink" xml:space="preserve" style="fill-rule:evenodd;clip-rule:evenodd;stroke-linejoin:round;stroke-miterlimit:1.41421;">
    <g transform="matrix(1,0,0,1,65.0154,-100.485)">
        <path d="M1231.46,550.957L1231.46,614.291L1263.54,614.291L1263.54,628.874L1231.46,628.874L1231.46,755.957C1231.46,759.291 1231.53,763.11 1231.66,767.416C1231.8,771.721 1232.5,775.818 1233.75,779.707C1235,783.596 1236.8,786.86 1239.16,789.499C1241.53,792.138 1245.07,793.457 1249.79,793.457C1252.01,793.457 1254.72,793.179 1257.91,792.624C1261.11,792.068 1263.54,791.513 1265.21,790.957C1265.48,792.346 1265.69,793.596 1265.83,794.707C1265.97,795.818 1266.04,797.068 1266.04,798.457C1266.04,803.179 1265,807.277 1262.91,810.749C1260.83,814.221 1258.12,816.999 1254.79,819.082C1251.46,821.166 1247.71,822.693 1243.54,823.666C1239.37,824.638 1235.21,825.124 1231.04,825.124C1222.71,825.124 1215.9,823.388 1210.62,819.916C1205.35,816.443 1201.11,811.86 1197.91,806.166C1194.72,800.471 1192.57,794.152 1191.46,787.207C1190.35,780.263 1189.79,773.318 1189.79,766.374L1189.79,628.874L1175.62,628.874L1175.62,614.291L1189.79,614.291L1189.79,556.791L1231.46,550.957Z" style="fill:rgb(255,187,0);"/>
        <text x="263.956px" y="822.624px" style="font-family:'LobsterTwo', 'Lobster Two';font-size:416.667px;fill:rgb(255,187,0);">Brigh</text>
    </g>
    <g transform="matrix(1,0,0,1,-253.643,-136.915)">
        <text x="1630.03px" y="858.635px" style="font-family:'Quicksand-Medium', 'Quicksand';font-weight:500;font-size:250px;fill:none;">baby</text>
        <text x="1630.03px" y="858.635px" style="font-family:'Quicksand-Medium', 'Quicksand';font-weight:500;font-size:250px;fill:rgb(140,140,140);">baby</text>
    </g>
</svg>
