<?xml version="1.0" encoding="UTF-8" standalone="no"?>
<!DOCTYPE svg PUBLIC "-//W3C//DTD SVG 1.1//EN" "http://www.w3.org/Graphics/SVG/1.1/DTD/svg11.dtd">
<svg width="100%" height="100%" viewBox="0 0 792 144" version="1.1" xmlns="http://www.w3.org/2000/svg" xmlns:xlink="http://www.w3.org/1999/xlink" xml:space="preserve" xmlns:serif="http://www.serif.com/" style="fill-rule:evenodd;clip-rule:evenodd;stroke-linejoin:round;stroke-miterlimit:1.41421;">
    <g transform="matrix(1,0,0,1,418.548,77.5112)">
        <g transform="matrix(1,0,0,1,-396,-72)">
            <g transform="matrix(1,0,0,1,17.8161,98.9519)">
                <text x="0px" y="0px" style="font-family:'Quicksand-Medium', 'Quicksand';font-weight:500;font-size:100px;">spruce</text>
            </g>
            <g transform="matrix(1,0,0,1,467.351,98.9488)">
                <text x="0px" y="0px" style="font-family:'Quicksand-Medium', 'Quicksand';font-weight:500;font-size:100px;">baby</text>
            </g>
            <g transform="matrix(1,0,0,1,-30.1388,-35.7395)">
                <g transform="matrix(1.36866,0,0,0.980572,-260.144,-94.2228)">
                    <path d="M508.852,155.209C508.852,152.539 507.299,150.371 505.385,150.371C503.472,150.371 501.919,152.539 501.919,155.209L501.919,240.969C501.919,243.639 503.472,245.807 505.385,245.807C507.299,245.807 508.852,243.639 508.852,240.969L508.852,155.209Z" style="fill:rgb(7,144,1);"/>
                </g>
                <g transform="matrix(0.879863,1.04837,-0.231351,0.194165,25.3102,-504.097)">
                    <path d="M508.852,166.08C508.852,157.41 507.299,150.371 505.385,150.371C503.472,150.371 501.919,157.41 501.919,166.08L501.919,230.098C501.919,238.768 503.472,245.807 505.385,245.807C507.299,245.807 508.852,238.768 508.852,230.098L508.852,166.08Z" style="fill:rgb(7,144,1);"/>
                </g>
                <g transform="matrix(-0.879863,1.04837,0.2312,0.194038,837.868,-504.05)">
                    <path d="M508.852,166.09C508.852,157.414 507.299,150.371 505.385,150.371C503.472,150.371 501.919,157.414 501.919,166.09L501.919,230.088C501.919,238.764 503.472,245.807 505.385,245.807C507.299,245.807 508.852,238.764 508.852,230.088L508.852,166.09Z" style="fill:rgb(7,144,1);"/>
                </g>
                <g transform="matrix(0.879863,1.04837,-0.260313,0.218472,29.6652,-488.752)">
                    <path d="M508.852,164.332C508.852,156.627 507.299,150.371 505.385,150.371C503.472,150.371 501.919,156.627 501.919,164.332L501.919,231.846C501.919,239.551 503.472,245.807 505.385,245.807C507.299,245.807 508.852,239.551 508.852,231.846L508.852,164.332Z" style="fill:rgb(7,144,1);"/>
                </g>
                <g transform="matrix(-0.879863,1.04837,0.260293,0.218455,833.493,-488.722)">
                    <path d="M508.852,164.333C508.852,156.627 507.299,150.371 505.385,150.371C503.472,150.371 501.919,156.627 501.919,164.333L501.919,231.845C501.919,239.551 503.472,245.807 505.385,245.807C507.299,245.807 508.852,239.551 508.852,231.845L508.852,164.333Z" style="fill:rgb(7,144,1);"/>
                </g>
                <g transform="matrix(0.879863,1.04837,-0.288658,0.242261,33.9274,-472.329)">
                    <path d="M508.852,162.961C508.852,156.012 507.299,150.371 505.385,150.371C503.472,150.371 501.919,156.012 501.919,162.961L501.919,233.217C501.919,240.166 503.472,245.807 505.385,245.807C507.299,245.807 508.852,240.166 508.852,233.217L508.852,162.961Z" style="fill:rgb(7,144,1);"/>
                </g>
                <g transform="matrix(-0.879863,1.04837,0.28914,0.242666,829.156,-472.362)">
                    <path d="M508.852,162.94C508.852,156.003 507.299,150.371 505.385,150.371C503.472,150.371 501.919,156.003 501.919,162.94L501.919,233.238C501.919,240.175 503.472,245.807 505.385,245.807C507.299,245.807 508.852,240.175 508.852,233.238L508.852,162.94Z" style="fill:rgb(7,144,1);"/>
                </g>
            </g>
            <g transform="matrix(1,0,0,1,740.175,120.77)">
                <text x="0px" y="0px" style="font-family:'Helvetica';font-size:40px;">™</text>
            </g>
        </g>
    </g>
    <g transform="matrix(1,0,0,1,23,0)">
        <rect x="735.337" y="79.684" width="49.931" height="50.743" style="fill:white;"/>
    </g>
</svg>
